{"title":"The Expendables 2 2012 DVDrip English Klam","uid":7922475,"size":1542865996,"categoryP":"video","categoryS":"movies","magnet":"?xt=urn:btih:e89ef86c36b5b6b0cee1847ac83e4dac71d5a27f&amp;dn=The+Expendables+2+2012+DVDrip+English+Klam&amp;tr=udp%3A%2F%2Ftracker.openbittorrent.com%3A80&amp;tr=udp%3A%2F%2Fopen.demonii.com%3A1337&amp;tr=udp%3A%2F%2Ftracker.coppersurfer.tk%3A6969&amp;tr=udp%3A%2F%2Fexodus.desync.com%3A6969","seeders":1,"leechers":0,"uploader":"Klambake","files":6,"time":1355504685,"description":"With: Sylvester Stallone, Jason Statham and Bruce Willis\n\nDe louche CIA agent Church (Bruce Willis) stuurt de Expendables, een groep huurlingen, opnieuw op een gevaarlijke missie. De groep moet een vermist pakketje zien terug te krijgen bij het agentschap. Het pakketje is echter in Gazak, een door oorlog verscheurd Oost-Europees land. De missie loopt in het honderd wanneer blijkt dat een andere groep huurlingen, de Sangunaires, dezelfde opdracht probeert uit te voeren.\n\nMr. Church reunites the Expendables for what should be an easy paycheck, but when one of their men is murdered on the job, their quest for revenge puts them deep in enemy territory and up against an unexpected threat. \n &lt;a href=&quot;\nhttp://www.imdb.com/title/tt1764651&quot; rel=&quot;nofollow&quot; target=&quot;_NEW&quot;&gt;\nhttp://www.imdb.com/title/tt1764651&lt;/a&gt;\n\n------------------------ Dutch Friends ------------------------\n---------------------------------------------------------------\n- Bezoek ook eens mijn vrienden op: &lt;a href=&quot; http://www.Film-Test.nl&quot; rel=&quot;nofollow&quot; target=&quot;_NEW&quot;&gt; http://www.Film-Test.nl&lt;/a&gt; --\n----- voor mijn Nederlandse Sync. ondertitels ---- en meer ----\n------- http://www.Film-Test.nl ---- Over Films en meer -------\n---------------------------------------------------------------\n\nGeneral:\n\nComplete name                    : The Expendables 2The Expendables 2.avi\nFormat                           : AVI\nFormat/Info                      : Audio Video Interleave\nFile size                        : 1.43 GiB\nDuration                         : 1h 38mn\nOverall bit rate                 : 2 094 Kbps\n\nVideo:\n\nFormat                           : MPEG-4 Visual\nFormat profile                   : Simple@L3\nFormat settings, BVOP            : No\nFormat settings, QPel            : No\nFormat settings, GMC             : No warppoints\nFormat settings, Matrix          : Default (H.263)\nCodec ID                         : XVID\nCodec ID/Hint                    : XviD\nDuration                         : 1h 38mn\nBit rate                         : 1 636 Kbps\nWidth                            : 720 pixels\nHeight                           : 304 pixels\nDisplay aspect ratio             : 2.35:1\nFrame rate                       : 23.976 fps\nColor space                      : YUV\nChroma subsampling               : 4:2:0\nBit depth                        : 8 bits\nScan type                        : Progressive\nCompression mode                 : Lossy\nBits/(Pixel*Frame)               : 0.312\nStream size                      : 1.12 GiB (78%)\nWriting library                  : XviD 1.1.2 (UTC 2006-11-01)\n\nAudio:\n\nFormat                           : AC-3\nFormat/Info                      : Audio Coding 3\nMode extension                   : CM (complete main)\nCodec ID                         : 2000\nDuration                         : 1h 38mn\nBit rate mode                    : Constant\nBit rate                         : 448 Kbps\nChannel(s)                       : 6 channels\nChannel positions                : Front: L C R, Side: L R, LFE\nSampling rate                    : 48.0 KHz\nBit depth                        : 16 bits\nCompression mode                 : Lossy\nStream size                      : 314 MiB (21%)\nAlignment                        : Aligned on interleaves\nInterleave, duration             : 32 ms (0.77 video frame)\nInterleave, preload duration     : 32 ms","torrent":{"xt":"urn:btih:e89ef86c36b5b6b0cee1847ac83e4dac71d5a27f","amp;dn":"The+Expendables+2+2012+DVDrip+English+Klam","amp;tr":["udp%3A%2F%2Ftracker.openbittorrent.com%3A80","udp%3A%2F%2Fopen.demonii.com%3A1337","udp%3A%2F%2Ftracker.coppersurfer.tk%3A6969","udp%3A%2F%2Fexodus.desync.com%3A6969"],"infoHash":"e89ef86c36b5b6b0cee1847ac83e4dac71d5a27f","infoHashBuffer":{"type":"Buffer","data":[232,158,248,108,54,181,182,176,206,225,132,122,200,62,77,172,113,213,162,127]},"announce":[],"urlList":[]}}